<?xml version="1.0" encoding="utf-8"?>
<!-- Generator: Adobe Illustrator 10.0, SVG Export Plug-In . SVG Version: 3.0.0 Build 76)  -->
<!DOCTYPE svg PUBLIC "-//W3C//DTD SVG 1.0//EN"    "http://www.w3.org/TR/2001/REC-SVG-20010904/DTD/svg10.dtd" [
	<!ENTITY ns_flows "http://ns.adobe.com/Flows/1.0/">
	<!ENTITY ns_svg "http://www.w3.org/2000/svg">
	<!ENTITY ns_xlink "http://www.w3.org/1999/xlink">
]>
<svg  xmlns="&ns_svg;" xmlns:xlink="&ns_xlink;" xmlns:a="http://ns.adobe.com/AdobeSVGViewerExtensions/3.0/"
	 width="864" height="874.518" viewBox="0 0 864 874.518" overflow="visible" enable-background="new 0 0 864 874.518"
	 xml:space="preserve">
	<g id="Layer_2">
		<path fill="#665B4E" d="M844,6.518h-0.06v568H844V6.518z"/>
		<path fill="#665B4E" d="M0,6.518v568h843.94v-568H0z"/>
		<path fill="#775F3C" d="M708,478.518c-8-8-28-20-36-24s-44-4-52,0s-48,36-48,36s-20,8-28,16s-16,40-16,40l124,32l128-48
			c0,0-16-12-32-20S716,486.518,708,478.518z"/>
		<path fill="#423322" d="M864,493.918c0-0.091-0.003-0.163-0.009-0.225C864,494.379,864,494.504,864,493.918z"/>
		<path fill="#423322" d="M816,429.088c-12-12.261-60-6.435-64-20.282c-4,5.766-60,1.624-60-9.9c0,13.26-32,2.358-48-4.389
			c-16,18.087-60,10.603-68,28.1c-8-4.093-60,2.249-60,6.071c0-14.618-48,20.18-48,17.781c0,19.379-40,16.474-48,13.202
			c-8-1.268-60,2.87-60-0.983c0,16.314-44,13.616-44,11.972c0,12.838-40-7.441-40,5.454c0,7.539-40-21.347-40-14.989
			c0,7.786-76-38.209-76-12.288c0-22.656-64-7.454-64-19.688c0,3.945-32,15.762-32,19.554c0,8.503-52,16.885-52,6.95
			c0,5.833-5.393,11.412-12,15.645v24.344c26.677,29.424,66.726,79.45,72,75.397c8-17.267,148,5.376,152-13.366
			c4,5.674,104,1.248,120,13.094c16,1.259,152-5.916,196,8.592c44-12.777,124-23.895,148-29.979c24,14.319,112-5.544,116-11.402
			c2.699,1.434,25.439-11.085,39.94-17.936V418.911C834.892,413.467,823.771,414.861,816,429.088z"/>
	</g>
	<g id="Layer_4">
		<path fill="#705D48" d="M144,114.518l-108,4l112,40l60-16l16-24l52,8l-64-36L144,114.518z"/>
		<path fill="#705D48" d="M708,150.518l-48,12l-72,8l148,32l56-20h-48L708,150.518z"/>
		<path fill="#705D48" d="M488,278.518l72,20l28-20l60,8l-64-28L488,278.518z"/>
		<path fill="#705D48" d="M152,282.518l-48-28l-44,12l60,32l88-12l-36-20L152,282.518z"/>
		<path fill="#705D48" d="M468,326.518l-44-20l-48,24l144,36l108-12l-52-20L468,326.518z"/>
	</g>
	<g id="Layer_1">
		<path fill="#705D48" d="M288,234.518l-52-4l84,36l104-16l-40-20L288,234.518z"/>
		<path fill="#2B2926" d="M844,530.518h-0.06v192H844V530.518z"/>
		<path fill="#2B2926" d="M660,530.518v192h183.94v-192H660z"/>
		<path fill="#474746" d="M716,722.518h8v-192h-8V722.518z"/>
		<path fill="#474746" d="M748,722.518h8v-192h-8V722.518z"/>
		<path fill="#474746" d="M780,722.518h8v-192h-8V722.518z"/>
		<path fill="#2B2926" d="M843.94,6.518v524H844v-192v-332L843.94,6.518z"/>
		<path fill="#2B2926" d="M672,7.518l60,94l23,236l-39,193h127.94v-524L672,7.518z"/>
		<path fill="#333230" d="M844,526.518h-0.06v4H844V526.518z"/>
		<path fill="#333230" d="M0,526.518v4h843.94v-4H0z"/>
		<path fill="#2B2926" d="M4,722.518h656v-192H4V722.518z"/>
		<path fill="#333230" d="M364,722.518h8v-192h-8V722.518z"/>
		<path fill="#333230" d="M268,722.518h8v-192h-8V722.518z"/>
		<path fill="#AAAAAA" d="M400.4,3.25c0,0.617-0.006,1.386-0.016,2.267h0.11C400.433,4.856,400.4,4.104,400.4,3.25z"/>
		<path fill="#AAAAAA" d="M538.935,0.526c0.004-0.015,0.005-0.032,0.009-0.047C538.941,0.494,538.938,0.511,538.935,0.526z"/>
		<path fill="#AAAAAA" d="M538.944,0.479C538.981,0.268,539,0.107,539,0C539,0.174,538.979,0.332,538.944,0.479z"/>
		<path fill="#AAAAAA" d="M396.231,132.462c0-63.652-16.673-1.635-16.673,45.492c0-111.544-45.853,16.492-45.853-23.168
			c0,66.568-40.642,15.24-40.642,106.41c0,14.909-52.105,21.375-52.105,20.326c0,10.327-66.695,89.79-66.695,117.73
			c0-41.262-51.063,39.456-51.063,135.518c0-19.072-40.642-35.476-40.642-29.437c0,51.604-38.558,92.015-38.558,56.058
			c0,88.103,43.769,70.284,43.769,75.538c0,26.5,97.958,36.592,97.958,46.577c0,70.158,85.453,48.149,85.453-20.012
			c0,13.041,3.126-30.874,3.126-9.569c0-27.115-0.288-68.545-0.561-92.56c-0.31,1.415-0.481,1.777-0.481,0.895
			c0-30.06,0.234-22.574,0.481-0.895c3.209-14.632,21.403-142.367,21.403-182.05c0,60.58,54.189-92.42,54.189-86.381
			c0,20.058,86.495-140.918,86.495-174.33c0,76.818,68.779-83.267,68.779-69.538c0,50.29,26.531-22.107,32.986-43.548H407.029
			c-3.458,4.531-6.022,5.486-6.535,0h-0.11C400.109,29.498,396.231,147.084,396.231,132.462z"/>
		<path fill="#AAAAAA" d="M273.263,562.259c0,0.882,0.171,0.52,0.481-0.895C273.498,539.686,273.263,532.2,273.263,562.259z"/>
		<path fill="#FCF500" d="M247,628.569c2-25.677,2-35.385,5-45.695c3,0.324,0-25.581,0-27.275c0,14.328-13-30.035-13-16.615
			c0-2.941-10-14.795-10-0.285c0-10.74-15,13.332-15,46.301c0-17.861-10,33.367-10,47.398c0-20.565-8,14.228-8,23.553
			c0-23.095-16-6.626-16,1.083c0,16.65-16,16.257-16,2.332c0-15.457-25-22.709-25-7.65c0-17.819,4-61.386,8-70.945
			c4-5.853,9-23.072,9-17.357c0-7.108,5-21.381,5-37.741c0-5.714-1-28.509-1-31.76c0-6.823-20,34.208-20,44.776
			c0-11.037-7-2.157-7,23.404c0,0.42-7,24.506-7,38.758c0-10.384-10,14.026-10,9.876c0-5.031-19.676,19.657-24.793,31.761
			C104.811,623.006,231,716.562,231,718.224c0,15.413,31,21.053,31,14.61c0-15.634,0-22.396,0-23.082c0-23.158-14-40.047-14-45.885
			C248,652.114,245,619.379,247,628.569z"/>
		<path fill="#FCF500" d="M91.207,642.487c-0.691,0.99-1.09,2.271-1.169,3.872C90.155,645.32,90.566,644.003,91.207,642.487z"/>
		<path fill="#FCF500" d="M90.038,646.358c-0.022,0.2-0.038,0.394-0.038,0.573C90,646.728,90.029,646.553,90.038,646.358z"/>
		<path fill="#AAAAAA" d="M71.756,482.644C71.285,478.733,71,476.7,71,475.224C71,478.829,71.302,480.944,71.756,482.644z"/>
		<path fill="#F91200" d="M233,624.333c0-5.11-2-21.01-2-34.439c0,0.003,0,0.013,0,0.015c0-0.002,0-0.012,0-0.015
			c0-0.541,0-16.438,0-16.186c0,8.75-5,37.956-5,32c0-12.273-9,30.53-9,37.61l-1-7.213c0,4.332,10,78.073,10,72.893
			c0,9.117,16-20.323,16-10.08c0-15.926-6-32.139-6-42.168C236,654.633,233,623.03,233,624.333z"/>
		<path fill="#AAAAAA" d="M57,564.958c0,62.562,4.787,67.813,9.36,70.154C61.744,593.845,57,555.901,57,564.958z"/>
		<path fill="#333230" d="M428,722.518h8v-192h-8V722.518z"/>
		<path fill="#333230" d="M396,722.518h8v-192h-8V722.518z"/>
		<path fill="#333230" d="M460,722.518h8v-192h-8V722.518z"/>
		<path fill="#333230" d="M332,722.518h8v-192h-8V722.518z"/>
		<path fill="#333230" d="M300,722.518h8v-192h-8V722.518z"/>
		<path fill="#AAAAAA" d="M505.423,499.901c0.76-0.703,1.426-1.714,2.02-2.944c-0.941,0.467-1.928,0.855-2.965,1.204
			C504.78,498.721,505.092,499.296,505.423,499.901z"/>
		<path fill="#AAAAAA" d="M521.244,460.637c-0.278,2.537-0.571,4.883-0.879,7.075c0.79,1.468,1.664,3.368,2.638,5.765
			c0.577-1.581,1.112-3.187,1.606-4.81C523.109,467.249,521.943,464.688,521.244,460.637z"/>
		<path fill="#AAAAAA" d="M477.135,511.267c0.054,0.198,0.107,0.403,0.161,0.619c3.516,14.985,7.032,9.311,14.063-9.145
			c0.063-0.173,0.12-0.333,0.182-0.502c-2.256,0.946-4.657,2.164-7.213,3.827C481.429,507.614,479.063,509.424,477.135,511.267z"/>
		<path fill="#AAAAAA" d="M561.676,438.777c-3.049-0.978-27.258,39.166-37.067,29.89c-0.495,1.624-1.029,3.229-1.606,4.81
			c-0.974-2.397-1.848-4.297-2.638-5.765c-2.818,20.062-6.928,26.273-12.921,29.245c-0.594,1.23-1.26,2.241-2.02,2.944
			c-0.331-0.605-0.643-1.18-0.945-1.741c-3.667,1.233-7.947,1.986-12.937,4.078c-0.062,0.17-0.119,0.33-0.182,0.502
			c-7.032,18.456-10.547,24.13-14.063,9.145c-0.054-0.215-0.107-0.421-0.161-0.619c-12.1,11.568-6.871,24.438-6.871-17.976
			c0,29.313,3.41,5.195,6.871,17.976c1.928-1.843,4.293-3.653,7.192-5.202c2.557-1.663,4.958-2.881,7.213-3.827
			c6.555-18.056,5.288-18.263,12.937-4.078c1.037-0.349,2.023-0.737,2.965-1.204c5.734-11.876,4.596-44.726,12.921-29.245
			c0.308-2.192,0.602-4.539,0.879-7.075c0.699,4.051,1.866,6.612,3.365,8.03c10.055-32.989,3.667-73.366,3.667-60.315
			c0,12.797-19.337,34.176-19.337,36.028c0-26.141-42.19-12.178-42.19,16.229c0,4.927-29.884-2.534-35.158,47.869
			c-5.274-14.784-10.547-1.923-17.579,15.458c-7.032-5.461-15.821,11.955-15.821,49.345c0-32.833-42.19-15.793-42.19,34.071
			c0-5.485,58.011-4.455,65.043,15.641c7.031,20.768,26.369-24.101,31.642-6.046c5.274,19.479,17.579-18.213,24.611-20.112
			c7.032,5.553,21.095,10.756,33.4-11.818c12.306-13.622,15.821-37.613,26.369-21.707c10.547,0.952,10.547-49.294,26.369-70.401
			c15.821-11.517,12.306,37.724,29.885-6.986c17.579-15.956,14.063-49.871,14.063-83.404
			C607.382,407.432,565.192,436.636,561.676,438.777z"/>
		<g>
			<path fill="#7F6730" d="M292,722.518h92v-152h-92V722.518z"/>
			<g>
				<path fill="#757574" d="M300,622.518h16v-20h-16V622.518z"/>
				<path fill="#757574" d="M360,622.518h16v-20h-16V622.518z"/>
				<path fill="#757574" d="M340,622.518h16v-20h-16V622.518z"/>
				<path fill="#757574" d="M320,622.518h16v-20h-16V622.518z"/>
			</g>
			<g>
				<path fill="#757574" d="M300,646.518h16v-20h-16V646.518z"/>
				<path fill="#757574" d="M360,646.518h16v-20h-16V646.518z"/>
				<path fill="#757574" d="M340,646.518h16v-20h-16V646.518z"/>
				<path fill="#757574" d="M320,646.518h16v-20h-16V646.518z"/>
			</g>
			<g>
				<path fill="#757574" d="M300,670.518h16v-20h-16V670.518z"/>
				<path fill="#757574" d="M360,670.518h16v-20h-16V670.518z"/>
				<path fill="#757574" d="M340,670.518h16v-20h-16V670.518z"/>
				<path fill="#757574" d="M320,670.518h16v-20h-16V670.518z"/>
			</g>
			<g>
				<path fill="#757574" d="M300,694.518h16v-20h-16V694.518z"/>
				<path fill="#757574" d="M360,694.518h16v-20h-16V694.518z"/>
				<path fill="#757574" d="M340,694.518h16v-20h-16V694.518z"/>
				<path fill="#757574" d="M320,694.518h16v-20h-16V694.518z"/>
			</g>
			<g>
				<path fill="#757574" d="M300,598.518h16v-20h-16V598.518z"/>
				<path fill="#757574" d="M360,598.518h16v-20h-16V598.518z"/>
				<path fill="#757574" d="M340,598.518h16v-20h-16V598.518z"/>
				<path fill="#757574" d="M320,598.518h16v-20h-16V598.518z"/>
			</g>
		</g>
		<g>
			<path fill="#AF9A66" d="M244,722.518h92v-128h-92V722.518z"/>
			<g>
				<path fill="#999792" d="M252,622.518h16v-20h-16V622.518z"/>
				<path fill="#999792" d="M312,622.518h16v-20h-16V622.518z"/>
				<path fill="#999792" d="M292,622.518h16v-20h-16V622.518z"/>
				<path fill="#999792" d="M272,622.518h16v-20h-16V622.518z"/>
			</g>
			<g>
				<path fill="#999792" d="M252,646.518h16v-20h-16V646.518z"/>
				<path fill="#999792" d="M312,646.518h16v-20h-16V646.518z"/>
				<path fill="#999792" d="M292,646.518h16v-20h-16V646.518z"/>
				<path fill="#999792" d="M272,646.518h16v-20h-16V646.518z"/>
			</g>
			<g>
				<path fill="#999792" d="M252,670.518h16v-20h-16V670.518z"/>
				<path fill="#999792" d="M312,670.518h16v-20h-16V670.518z"/>
				<path fill="#999792" d="M292,670.518h16v-20h-16V670.518z"/>
				<path fill="#999792" d="M272,670.518h16v-20h-16V670.518z"/>
			</g>
			<g>
				<path fill="#999792" d="M252,694.518h16v-20h-16V694.518z"/>
				<path fill="#999792" d="M312,694.518h16v-20h-16V694.518z"/>
				<path fill="#999792" d="M292,694.518h16v-20h-16V694.518z"/>
				<path fill="#999792" d="M272,694.518h16v-20h-16V694.518z"/>
			</g>
			<path fill="#999792" d="M252,718.518h16v-20h-16V718.518z"/>
			<path fill="#999792" d="M312,718.518h16v-20h-16V718.518z"/>
			<path fill="#604206" d="M280,722.518h20v-20h-20V722.518z"/>
		</g>
		<path fill="#333230" d="M588,722.518h8v-192h-8V722.518z"/>
		<path fill="#333230" d="M620,722.518h8v-192h-8V722.518z"/>
		<path fill="#333230" d="M652,722.518h8v-192h-8V722.518z"/>
		<path fill="#333230" d="M684,722.518h8v-192h-8V722.518z"/>
		<path fill="#333230" d="M716,658.518h8v-192h-8V658.518z"/>
		<path fill="#333230" d="M780,658.518h8v-192h-8V658.518z"/>
		<path fill="#333230" d="M812,722.518h8v-192h-8V722.518z"/>
		<path fill="#FCF500" d="M428.337,613.153c0-0.014,0.633-0.804,1.738-2.172c-0.562-0.093-1.122-0.186-1.682-0.279
			C428.358,611.524,428.337,612.342,428.337,613.153z"/>
		<path fill="#FCF500" d="M436.589,498.396c0,13.766-9.432,17.067-9.432,51.944c0-23.254-15.326,2.59-15.326,16.625
			c0,13.78-22.4,6.794-25.937,5.569c-3.537,24.142-5.895,28.639-5.895,29.982c0-0.51,23.586,4.057,48.393,8.184
			c0.891-21.16,12.823-46.431,14.943-73.169C441.945,547.912,436.589,512.996,436.589,498.396z"/>
		<path fill="#FCF500" d="M513.221,558.263c0-17.988-8.252-28.519-9.431-64.922c-1.179,17.596-14.147,37.408-14.147,14.989
			c0,8.105-21.221,61.504-21.221,55.764c0-0.267-30.648,37.358-38.346,46.887c27.003,4.46,54.851,8.254,54.851,4.307
			c0-14.599,29.474-21.085,29.474-51.75C514.4,564.127,513.221,563.145,513.221,558.263z"/>
		<path fill="#FCF500" d="M443.336,537.532c0.207-1.548,0.327-4.095,0.327-7.877C443.663,532.293,443.543,534.919,443.336,537.532z"
			/>
		<path fill="#F91200" d="M418.198,569.03c0,3.173-12.189,14.941-12.189,9.278c0,1.2-11.472,11.058-11.472,14.938
			c0-2.4-10.038,5.542-10.038,3.61c0,4.51,20.076-0.794,20.076-0.128c0,0.594,7.169-1.514,7.169-0.222
			c0-2.425,5.736-11.848,5.736-12.854c0,1.055,2.235-6.121,3.722-8.568C419.937,574.144,418.198,572.717,418.198,569.03z"/>
		<path fill="#F91200" d="M421.203,575.083c0.725,0.538,1.297,0.917,1.297,1.466C422.5,573.813,421.944,573.864,421.203,575.083z"/>
		<path fill="#F91200" d="M488,547.755c0,0.171,0,0.326,0,0.476c0-0.016,0,0.21,0,0.856c0,0.549,0,1.153,0,1.113
			c0,0.04,0-0.563,0-1.113c0-8.145-6,5.487-6,6.406c0,0.922-16.5,23.723-16.5,13.368c0,8.521-7.5,9.705-7.5,10.115
			c0,3.028,30,5.754,30,3.411c0-6.695,5.226-37.896,5.489-32.564C493.255,542.942,488,549.438,488,547.755z"/>
		<path fill="#F91200" d="M493.489,549.823c0.005,0.156,0.011,0.311,0.011,0.481C493.5,550.116,493.496,549.96,493.489,549.823z"/>
		<g>
			<path fill="#7F6730" d="M568,722.518h92v-176h-92V722.518z"/>
			<g>
				<path fill="#757574" d="M576,622.518h16v-20h-16V622.518z"/>
				<path fill="#757574" d="M636,622.518h16v-20h-16V622.518z"/>
				<path fill="#757574" d="M616,622.518h16v-20h-16V622.518z"/>
				<path fill="#757574" d="M596,622.518h16v-20h-16V622.518z"/>
			</g>
			<g>
				<path fill="#757574" d="M576,646.518h16v-20h-16V646.518z"/>
				<path fill="#757574" d="M636,646.518h16v-20h-16V646.518z"/>
				<path fill="#757574" d="M616,646.518h16v-20h-16V646.518z"/>
				<path fill="#757574" d="M596,646.518h16v-20h-16V646.518z"/>
			</g>
			<g>
				<path fill="#757574" d="M576,670.518h16v-20h-16V670.518z"/>
				<path fill="#757574" d="M636,670.518h16v-20h-16V670.518z"/>
				<path fill="#757574" d="M616,670.518h16v-20h-16V670.518z"/>
				<path fill="#757574" d="M596,670.518h16v-20h-16V670.518z"/>
			</g>
			<g>
				<path fill="#757574" d="M576,694.518h16v-20h-16V694.518z"/>
				<path fill="#757574" d="M636,694.518h16v-20h-16V694.518z"/>
				<path fill="#757574" d="M616,694.518h16v-20h-16V694.518z"/>
				<path fill="#757574" d="M596,694.518h16v-20h-16V694.518z"/>
			</g>
			<g>
				<path fill="#757574" d="M576,598.518h16v-20h-16V598.518z"/>
				<path fill="#757574" d="M636,598.518h16v-20h-16V598.518z"/>
				<path fill="#757574" d="M616,598.518h16v-20h-16V598.518z"/>
				<path fill="#757574" d="M596,598.518h16v-20h-16V598.518z"/>
			</g>
			<g>
				<path fill="#757574" d="M576,574.518h16v-20h-16V574.518z"/>
				<path fill="#757574" d="M636,574.518h16v-20h-16V574.518z"/>
				<path fill="#757574" d="M616,574.518h16v-20h-16V574.518z"/>
				<path fill="#757574" d="M596,574.518h16v-20h-16V574.518z"/>
			</g>
		</g>
		<g>
			<path fill="#7F6730" d="M424,722.518h92v-152h-92V722.518z"/>
			<g>
				<path fill="#757574" d="M432,622.518h16v-20h-16V622.518z"/>
				<path fill="#757574" d="M492,622.518h16v-20h-16V622.518z"/>
				<path fill="#757574" d="M472,622.518h16v-20h-16V622.518z"/>
				<path fill="#757574" d="M452,622.518h16v-20h-16V622.518z"/>
			</g>
			<g>
				<path fill="#757574" d="M432,646.518h16v-20h-16V646.518z"/>
				<path fill="#757574" d="M492,646.518h16v-20h-16V646.518z"/>
				<path fill="#757574" d="M472,646.518h16v-20h-16V646.518z"/>
				<path fill="#757574" d="M452,646.518h16v-20h-16V646.518z"/>
			</g>
			<g>
				<path fill="#757574" d="M432,670.518h16v-20h-16V670.518z"/>
				<path fill="#757574" d="M492,670.518h16v-20h-16V670.518z"/>
				<path fill="#757574" d="M472,670.518h16v-20h-16V670.518z"/>
				<path fill="#757574" d="M452,670.518h16v-20h-16V670.518z"/>
			</g>
			<g>
				<path fill="#757574" d="M432,694.518h16v-20h-16V694.518z"/>
				<path fill="#757574" d="M492,694.518h16v-20h-16V694.518z"/>
				<path fill="#757574" d="M472,694.518h16v-20h-16V694.518z"/>
				<path fill="#757574" d="M452,694.518h16v-20h-16V694.518z"/>
			</g>
			<g>
				<path fill="#757574" d="M432,598.518h16v-20h-16V598.518z"/>
				<path fill="#757574" d="M492,598.518h16v-20h-16V598.518z"/>
				<path fill="#757574" d="M472,598.518h16v-20h-16V598.518z"/>
				<path fill="#757574" d="M452,598.518h16v-20h-16V598.518z"/>
			</g>
		</g>
		<path fill="#2B2926" d="M724,530.518h56v-64h-56V530.518z"/>
		<g>
			<path fill="#777570" d="M376,722.518h92v-128h-92V722.518z"/>
			<g>
				<path fill="#999792" d="M384,622.518h16v-20h-16V622.518z"/>
				<path fill="#999792" d="M444,622.518h16v-20h-16V622.518z"/>
				<path fill="#999792" d="M424,622.518h16v-20h-16V622.518z"/>
				<path fill="#999792" d="M404,622.518h16v-20h-16V622.518z"/>
			</g>
			<g>
				<path fill="#999792" d="M384,646.518h16v-20h-16V646.518z"/>
				<path fill="#999792" d="M444,646.518h16v-20h-16V646.518z"/>
				<path fill="#999792" d="M424,646.518h16v-20h-16V646.518z"/>
				<path fill="#999792" d="M404,646.518h16v-20h-16V646.518z"/>
			</g>
			<g>
				<path fill="#999792" d="M384,670.518h16v-20h-16V670.518z"/>
				<path fill="#999792" d="M444,670.518h16v-20h-16V670.518z"/>
				<path fill="#999792" d="M424,670.518h16v-20h-16V670.518z"/>
				<path fill="#999792" d="M404,670.518h16v-20h-16V670.518z"/>
			</g>
			<g>
				<path fill="#999792" d="M384,694.518h16v-20h-16V694.518z"/>
				<path fill="#999792" d="M444,694.518h16v-20h-16V694.518z"/>
				<path fill="#999792" d="M424,694.518h16v-20h-16V694.518z"/>
				<path fill="#999792" d="M404,694.518h16v-20h-16V694.518z"/>
			</g>
			<path fill="#999792" d="M384,718.518h16v-20h-16V718.518z"/>
			<path fill="#999792" d="M444,718.518h16v-20h-16V718.518z"/>
			<path fill="#604206" d="M412,722.518h20v-20h-20V722.518z"/>
		</g>
		<path fill="#AF9A66" d="M492,722.518h92v-220h-92V722.518z"/>
		<g>
			<path fill="#999792" d="M500,622.518h16v-20h-16V622.518z"/>
			<path fill="#999792" d="M560,622.518h16v-20h-16V622.518z"/>
			<path fill="#999792" d="M540,622.518h16v-20h-16V622.518z"/>
			<path fill="#999792" d="M520,622.518h16v-20h-16V622.518z"/>
		</g>
		<g>
			<path fill="#999792" d="M500,646.518h16v-20h-16V646.518z"/>
			<path fill="#999792" d="M560,646.518h16v-20h-16V646.518z"/>
			<path fill="#999792" d="M540,646.518h16v-20h-16V646.518z"/>
			<path fill="#999792" d="M520,646.518h16v-20h-16V646.518z"/>
		</g>
		<g>
			<path fill="#999792" d="M500,574.518h16v-20h-16V574.518z"/>
			<path fill="#999792" d="M560,574.518h16v-20h-16V574.518z"/>
			<path fill="#999792" d="M540,574.518h16v-20h-16V574.518z"/>
			<path fill="#999792" d="M520,574.518h16v-20h-16V574.518z"/>
		</g>
		<g>
			<path fill="#999792" d="M500,598.518h16v-20h-16V598.518z"/>
			<path fill="#999792" d="M560,598.518h16v-20h-16V598.518z"/>
			<path fill="#999792" d="M540,598.518h16v-20h-16V598.518z"/>
			<path fill="#999792" d="M520,598.518h16v-20h-16V598.518z"/>
		</g>
		<g>
			<path fill="#999792" d="M500,670.518h16v-20h-16V670.518z"/>
			<path fill="#999792" d="M560,670.518h16v-20h-16V670.518z"/>
			<path fill="#999792" d="M540,670.518h16v-20h-16V670.518z"/>
			<path fill="#999792" d="M520,670.518h16v-20h-16V670.518z"/>
		</g>
		<g>
			<path fill="#999792" d="M500,694.518h16v-20h-16V694.518z"/>
			<path fill="#999792" d="M560,694.518h16v-20h-16V694.518z"/>
			<path fill="#999792" d="M540,694.518h16v-20h-16V694.518z"/>
			<path fill="#999792" d="M520,694.518h16v-20h-16V694.518z"/>
		</g>
		<path fill="#999792" d="M500,718.518h16v-20h-16V718.518z"/>
		<path fill="#999792" d="M560,718.518h16v-20h-16V718.518z"/>
		<path fill="#604206" d="M528,722.518h20v-20h-20V722.518z"/>
		<g>
			<path fill="#999792" d="M500,526.518h16v-20h-16V526.518z"/>
			<path fill="#999792" d="M560,526.518h16v-20h-16V526.518z"/>
			<path fill="#999792" d="M540,526.518h16v-20h-16V526.518z"/>
			<path fill="#999792" d="M520,526.518h16v-20h-16V526.518z"/>
		</g>
		<g>
			<path fill="#999792" d="M500,550.518h16v-20h-16V550.518z"/>
			<path fill="#999792" d="M560,550.518h16v-20h-16V550.518z"/>
			<path fill="#999792" d="M540,550.518h16v-20h-16V550.518z"/>
			<path fill="#999792" d="M520,550.518h16v-20h-16V550.518z"/>
		</g>
		<g>
			<path fill="#A0A0A0" d="M516,502.518h4.4l17.6-68l17.6,68h4.4l-22-72L516,502.518z"/>
			<path fill="#A0A0A0" d="M525.9,470.518l-1.1,4h26.4l-2.2-4H525.9z"/>
			<path fill="#A0A0A0" d="M533.966,446.518l-0.366,4h8.8l-0.733-4H533.966z"/>
			<path fill="#A0A0A0" d="M520.4,498.518h35.2v-4h-33.734L520.4,498.518z"/>
		</g>
		<g>
			<path fill="#AF9A66" d="M604,722.518h92v-128h-92V722.518z"/>
			<g>
				<path fill="#999792" d="M612,622.518h16v-20h-16V622.518z"/>
				<path fill="#999792" d="M672,622.518h16v-20h-16V622.518z"/>
				<path fill="#999792" d="M652,622.518h16v-20h-16V622.518z"/>
				<path fill="#999792" d="M632,622.518h16v-20h-16V622.518z"/>
			</g>
			<g>
				<path fill="#999792" d="M612,646.518h16v-20h-16V646.518z"/>
				<path fill="#999792" d="M672,646.518h16v-20h-16V646.518z"/>
				<path fill="#999792" d="M652,646.518h16v-20h-16V646.518z"/>
				<path fill="#999792" d="M632,646.518h16v-20h-16V646.518z"/>
			</g>
			<g>
				<path fill="#999792" d="M612,670.518h16v-20h-16V670.518z"/>
				<path fill="#999792" d="M672,670.518h16v-20h-16V670.518z"/>
				<path fill="#999792" d="M652,670.518h16v-20h-16V670.518z"/>
				<path fill="#999792" d="M632,670.518h16v-20h-16V670.518z"/>
			</g>
			<g>
				<path fill="#999792" d="M612,694.518h16v-20h-16V694.518z"/>
				<path fill="#999792" d="M672,694.518h16v-20h-16V694.518z"/>
				<path fill="#999792" d="M652,694.518h16v-20h-16V694.518z"/>
				<path fill="#999792" d="M632,694.518h16v-20h-16V694.518z"/>
			</g>
			<path fill="#999792" d="M612,718.518h16v-20h-16V718.518z"/>
			<path fill="#999792" d="M672,718.518h16v-20h-16V718.518z"/>
			<path fill="#604206" d="M640,722.518h20v-20h-20V722.518z"/>
		</g>
		<g>
			<path fill="#7F6730" d="M108,722.518h92v-176h-92V722.518z"/>
			<g>
				<path fill="#757574" d="M116,622.518h16v-20h-16V622.518z"/>
				<path fill="#757574" d="M176,622.518h16v-20h-16V622.518z"/>
				<path fill="#757574" d="M156,622.518h16v-20h-16V622.518z"/>
				<path fill="#757574" d="M136,622.518h16v-20h-16V622.518z"/>
			</g>
			<g>
				<path fill="#757574" d="M116,646.518h16v-20h-16V646.518z"/>
				<path fill="#757574" d="M176,646.518h16v-20h-16V646.518z"/>
				<path fill="#757574" d="M156,646.518h16v-20h-16V646.518z"/>
				<path fill="#757574" d="M136,646.518h16v-20h-16V646.518z"/>
			</g>
			<g>
				<path fill="#757574" d="M116,670.518h16v-20h-16V670.518z"/>
				<path fill="#757574" d="M176,670.518h16v-20h-16V670.518z"/>
				<path fill="#757574" d="M156,670.518h16v-20h-16V670.518z"/>
				<path fill="#757574" d="M136,670.518h16v-20h-16V670.518z"/>
			</g>
			<g>
				<path fill="#757574" d="M116,694.518h16v-20h-16V694.518z"/>
				<path fill="#757574" d="M176,694.518h16v-20h-16V694.518z"/>
				<path fill="#757574" d="M156,694.518h16v-20h-16V694.518z"/>
				<path fill="#757574" d="M136,694.518h16v-20h-16V694.518z"/>
			</g>
			<g>
				<path fill="#757574" d="M116,598.518h16v-20h-16V598.518z"/>
				<path fill="#757574" d="M176,598.518h16v-20h-16V598.518z"/>
				<path fill="#757574" d="M156,598.518h16v-20h-16V598.518z"/>
				<path fill="#757574" d="M136,598.518h16v-20h-16V598.518z"/>
			</g>
			<g>
				<path fill="#757574" d="M116,574.518h16v-20h-16V574.518z"/>
				<path fill="#757574" d="M176,574.518h16v-20h-16V574.518z"/>
				<path fill="#757574" d="M156,574.518h16v-20h-16V574.518z"/>
				<path fill="#757574" d="M136,574.518h16v-20h-16V574.518z"/>
			</g>
		</g>
		<path fill="#333230" d="M748,658.518h8v-192h-8V658.518z"/>
		<g>
			<path fill="#AF9A66" d="M144,722.518h92v-100h-92V722.518z"/>
			<g>
				<path fill="#999792" d="M152,646.518h16v-20h-16V646.518z"/>
				<path fill="#999792" d="M212,646.518h16v-20h-16V646.518z"/>
				<path fill="#999792" d="M192,646.518h16v-20h-16V646.518z"/>
				<path fill="#999792" d="M172,646.518h16v-20h-16V646.518z"/>
			</g>
			<g>
				<path fill="#999792" d="M152,670.518h16v-20h-16V670.518z"/>
				<path fill="#999792" d="M212,670.518h16v-20h-16V670.518z"/>
				<path fill="#999792" d="M192,670.518h16v-20h-16V670.518z"/>
				<path fill="#999792" d="M172,670.518h16v-20h-16V670.518z"/>
			</g>
			<g>
				<path fill="#999792" d="M152,694.518h16v-20h-16V694.518z"/>
				<path fill="#999792" d="M212,694.518h16v-20h-16V694.518z"/>
				<path fill="#999792" d="M192,694.518h16v-20h-16V694.518z"/>
				<path fill="#999792" d="M172,694.518h16v-20h-16V694.518z"/>
			</g>
			<path fill="#999792" d="M152,718.518h16v-20h-16V718.518z"/>
			<path fill="#999792" d="M212,718.518h16v-20h-16V718.518z"/>
			<path fill="#604206" d="M180,722.518h20v-20h-20V722.518z"/>
		</g>
		<g>
			<path fill="#846F40" d="M788,602.518h-8l-12,8h-8l-12,4l-8,4l-20,8v18l24,2h28l20-4l12-24l-4-12L788,602.518z"/>
			<path fill="#282827" d="M784,622.518c-4,0-8,0-8,0l-8,4l-4,4c0,0-4,0-4,4s-8,4-8,4h-4h-4h-4l-4,4c0,0,40-4,44-4s8-4,8-4
				S788,622.518,784,622.518z"/>
			<path fill="#AF9A66" d="M796,606.518l-8,8l-16,8v12l-16,4l-16,4l-20,2v78h92v-128h-13L796,606.518z"/>
			<path fill="#686868" d="M796,606.518l-8,8v8h16v-20h-7L796,606.518z"/>
			<path fill="#686868" d="M784,622.518v-6l-12,6H784z"/>
			<path fill="#686868" d="M728,643.718v2.8h16v-5l-4,1L728,643.718z"/>
			<path fill="#999792" d="M788,646.518h16v-20h-16V646.518z"/>
			<path fill="#999792" d="M772,634.518l-4,1v11h16v-20h-12V634.518z"/>
			<path fill="#999792" d="M768,635.518l4-1v-8h-4V635.518z"/>
			<path fill="#686868" d="M748,640.518v6h16v-10l-8,2L748,640.518z"/>
			<g>
				<path fill="#999792" d="M728,670.518h16v-20h-16V670.518z"/>
				<path fill="#999792" d="M788,670.518h16v-20h-16V670.518z"/>
				<path fill="#999792" d="M768,670.518h16v-20h-16V670.518z"/>
				<path fill="#999792" d="M748,670.518h16v-20h-16V670.518z"/>
			</g>
			<g>
				<path fill="#999792" d="M728,694.518h16v-20h-16V694.518z"/>
				<path fill="#999792" d="M788,694.518h16v-20h-16V694.518z"/>
				<path fill="#999792" d="M768,694.518h16v-20h-16V694.518z"/>
				<path fill="#999792" d="M748,694.518h16v-20h-16V694.518z"/>
			</g>
			<path fill="#999792" d="M728,718.518h16v-20h-16V718.518z"/>
			<path fill="#999792" d="M788,718.518h16v-20h-16V718.518z"/>
			<path fill="#604206" d="M756,722.518h20v-20h-20V722.518z"/>
		</g>
		<path fill="#333230" d="M716,466.518h72v-4h-72V466.518z"/>
		<g>
			<g>
				<path fill="#7F6730" d="M92,454.518H0v268h92V454.518z"/>
				<g>
					<path fill="#757574" d="M8,622.518h16v-20H8V622.518z"/>
					<path fill="#757574" d="M68,622.518h16v-20H68V622.518z"/>
					<path fill="#757574" d="M48,622.518h16v-20H48V622.518z"/>
					<path fill="#757574" d="M28,622.518h16v-20H28V622.518z"/>
				</g>
				<g>
					<path fill="#757574" d="M8,646.518h16v-20H8V646.518z"/>
					<path fill="#757574" d="M68,646.518h16v-20H68V646.518z"/>
					<path fill="#757574" d="M48,646.518h16v-20H48V646.518z"/>
					<path fill="#757574" d="M28,646.518h16v-20H28V646.518z"/>
				</g>
				<g>
					<path fill="#757574" d="M8,670.518h16v-20H8V670.518z"/>
					<path fill="#757574" d="M68,670.518h16v-20H68V670.518z"/>
					<path fill="#757574" d="M48,670.518h16v-20H48V670.518z"/>
					<path fill="#757574" d="M28,670.518h16v-20H28V670.518z"/>
				</g>
				<g>
					<path fill="#757574" d="M8,694.518h16v-20H8V694.518z"/>
					<path fill="#757574" d="M68,694.518h16v-20H68V694.518z"/>
					<path fill="#757574" d="M48,694.518h16v-20H48V694.518z"/>
					<path fill="#757574" d="M28,694.518h16v-20H28V694.518z"/>
				</g>
				<g>
					<path fill="#757574" d="M8,598.518h16v-20H8V598.518z"/>
					<path fill="#757574" d="M68,598.518h16v-20H68V598.518z"/>
					<path fill="#757574" d="M48,598.518h16v-20H48V598.518z"/>
					<path fill="#757574" d="M28,598.518h16v-20H28V598.518z"/>
				</g>
				<g>
					<path fill="#757574" d="M8,574.518h16v-20H8V574.518z"/>
					<path fill="#757574" d="M68,574.518h16v-20H68V574.518z"/>
					<path fill="#757574" d="M48,574.518h16v-20H48V574.518z"/>
					<path fill="#757574" d="M28,574.518h16v-20H28V574.518z"/>
				</g>
			</g>
			<g>
				<path fill="#757574" d="M8,550.518h16v-20H8V550.518z"/>
				<path fill="#757574" d="M68,550.518h16v-20H68V550.518z"/>
				<path fill="#757574" d="M48,550.518h16v-20H48V550.518z"/>
				<path fill="#757574" d="M28,550.518h16v-20H28V550.518z"/>
			</g>
			<g>
				<path fill="#757574" d="M8,526.518h16v-20H8V526.518z"/>
				<path fill="#757574" d="M68,526.518h16v-20H68V526.518z"/>
				<path fill="#757574" d="M48,526.518h16v-20H48V526.518z"/>
				<path fill="#757574" d="M28,526.518h16v-20H28V526.518z"/>
			</g>
			<g>
				<path fill="#757574" d="M8,502.518h16v-20H8V502.518z"/>
				<path fill="#757574" d="M68,502.518h16v-20H68V502.518z"/>
				<path fill="#757574" d="M48,502.518h16v-20H48V502.518z"/>
				<path fill="#757574" d="M28,502.518h16v-20H28V502.518z"/>
			</g>
			<g>
				<path fill="#757574" d="M8,478.518h16v-20H8V478.518z"/>
				<path fill="#757574" d="M68,478.518h16v-20H68V478.518z"/>
				<path fill="#757574" d="M48,478.518h16v-20H48V478.518z"/>
				<path fill="#757574" d="M28,478.518h16v-20H28V478.518z"/>
			</g>
		</g>
		<g>
			<path fill="#A8A6A1" d="M36,722.518h92v-128H36V722.518z"/>
			<g>
				<path fill="#999792" d="M44,622.518h16v-20H44V622.518z"/>
				<path fill="#999792" d="M104,622.518h16v-20h-16V622.518z"/>
				<path fill="#999792" d="M84,622.518h16v-20H84V622.518z"/>
				<path fill="#999792" d="M64,622.518h16v-20H64V622.518z"/>
			</g>
			<g>
				<path fill="#999792" d="M44,646.518h16v-20H44V646.518z"/>
				<path fill="#999792" d="M104,646.518h16v-20h-16V646.518z"/>
				<path fill="#999792" d="M84,646.518h16v-20H84V646.518z"/>
				<path fill="#999792" d="M64,646.518h16v-20H64V646.518z"/>
			</g>
			<g>
				<path fill="#999792" d="M44,670.518h16v-20H44V670.518z"/>
				<path fill="#999792" d="M104,670.518h16v-20h-16V670.518z"/>
				<path fill="#999792" d="M84,670.518h16v-20H84V670.518z"/>
				<path fill="#999792" d="M64,670.518h16v-20H64V670.518z"/>
			</g>
			<g>
				<path fill="#999792" d="M44,694.518h16v-20H44V694.518z"/>
				<path fill="#999792" d="M104,694.518h16v-20h-16V694.518z"/>
				<path fill="#999792" d="M84,694.518h16v-20H84V694.518z"/>
				<path fill="#999792" d="M64,694.518h16v-20H64V694.518z"/>
			</g>
			<path fill="#999792" d="M44,718.518h16v-20H44V718.518z"/>
			<path fill="#999792" d="M104,718.518h16v-20h-16V718.518z"/>
			<path fill="#604206" d="M72,722.518h20v-20H72V722.518z"/>
		</g>
	</g>
	<g id="Layer_3">
		<path fill="#A56621" d="M844,745.812l-0.06,0.048v128.658H844V745.812z"/>
		<path fill="#A56621" d="M683.902,874.518H843.94V745.859L683.902,874.518z"/>
		<path fill="#A56621" d="M0,749.185v125.333h188L0,749.185z"/>
		<path fill="#663D0C" d="M844,722.518h-0.06v23.342l0.06-0.048V722.518z"/>
		<path fill="#663D0C" d="M0,722.518v26.667l188,125.333h495.902L843.94,745.859v-23.342H0z"/>
		<path fill="#A56621" d="M260,722.518l208,68l168-68l-172,8L260,722.518z"/>
	</g>
</svg>
