<?xml version="1.0" encoding="utf-8"?>
<!-- Generator: Adobe Illustrator 10.0, SVG Export Plug-In . SVG Version: 3.0.0 Build 76)  -->
<!DOCTYPE svg PUBLIC "-//W3C//DTD SVG 1.0//EN"    "http://www.w3.org/TR/2001/REC-SVG-20010904/DTD/svg10.dtd" [
	<!ENTITY ns_flows "http://ns.adobe.com/Flows/1.0/">
	<!ENTITY ns_svg "http://www.w3.org/2000/svg">
	<!ENTITY ns_xlink "http://www.w3.org/1999/xlink">
]>
<svg  xmlns="&ns_svg;" xmlns:xlink="&ns_xlink;" xmlns:a="http://ns.adobe.com/AdobeSVGViewerExtensions/3.0/"
	 width="302.521" height="305.694" viewBox="0 0 302.521 305.694" overflow="visible" enable-background="new 0 0 302.521 305.694"
	 xml:space="preserve">
	<g id="Layer_1">
		<g>
			<g>
				<path fill="none" stroke="#9F1209" d="M3.506,102.125l-3,37.5l9.5,31l24,12l-20.5,47l6,14l-1.5,10l25,2v-9.5l-9-6.5l-4.5-12.5
					l19.5-25l3-14l11-18l-0.5-18l4.5-5l59,6.5l31,14l21.5,54l-9,30l6,35l7.5,16l24.5,2.5l-3-13l-17-40.5l43.5-57l5-14.5l22-10l31-32
					l13-27.5l-8.5-61.5l-7.5-31l-20-11l-19-0.5l-6.5,11.5l-34-17.5l-18,21l-42.5-13l-7.5,12.5l-41,5.5l-10,11l-24,6L3.506,102.125z"
					/>
				<path fill="none" stroke="#9F1209" d="M131.506,136.125l73-71.5"/>
				<path fill="none" stroke="#9F1209" d="M204.505,64.625l84.5,73.5"/>
				<path fill="none" stroke="#9F1209" d="M289.005,138.125l4.5-89"/>
				<path fill="none" stroke="#9F1209" d="M261.005,35.125l32.5,14"/>
				<path fill="none" stroke="#9F1209" d="M261.005,35.125l5-28"/>
				<path fill="none" stroke="#9F1209" d="M221.505,31.125l39.5,4"/>
				<path fill="none" stroke="#9F1209" d="M221.505,31.125l-15-30.5"/>
				<path fill="none" stroke="#9F1209" d="M129.506,37.125l56.009-6.849l35.99,0.849"/>
				<path fill="none" stroke="#9F1209" d="M129.506,37.125l9-16"/>
				<path fill="none" stroke="#9F1209" d="M129.506,37.125l-56.5,18l-66,55"/>
				<path fill="none" stroke="#9F1209" d="M7.006,110.125l-6.5,29.5"/>
				<path fill="none" stroke="#9F1209" d="M10.006,170.625l-3-60.5"/>
				<path fill="none" stroke="#9F1209" d="M62.506,152.125l-55.5-42"/>
				<path fill="none" stroke="#9F1209" d="M131.506,136.125l-124.5-26"/>
				<path fill="none" stroke="#9F1209" d="M197.005,115.625l7.5-51"/>
				<path fill="none" stroke="#9F1209" d="M183.005,302.625l6-14"/>
				<path fill="none" stroke="#9F1209" d="M187.505,251.625h-9.5"/>
				<path fill="none" stroke="#9F1209" d="M178.005,251.625l11,37"/>
				<path fill="none" stroke="#9F1209" d="M211.505,207.125l-33.5,44.5"/>
				<path fill="none" stroke="#9F1209" d="M211.505,207.125l19.5-12.5"/>
				<path fill="none" stroke="#9F1209" d="M244.005,147.125l-8,33"/>
				<path fill="none" stroke="#9F1209" d="M289.005,138.125l-45,9"/>
			</g>
			<g>
				<path fill="none" stroke="#FF1200" d="M3.506,102.125l-3,37.5l9.5,31l24,12l-20.5,47l6,14l-1.5,10l25,2v-9.5l-9-6.5l-4.5-12.5
					l19.5-25l3-14l11-18l-0.5-18l4.5-5l59,6.5l31,14l21.5,54l-9,30l6,35l7.5,16l24.5,2.5l-3-13l-17-40.5l43.5-57l5-14.5l22-10l31-32
					l13-27.5l-8.5-61.5l-7.5-31l-20-11l-19-0.5l-6.5,11.5l-34-17.5l-18,21l-42.5-13l-7.5,12.5l-41,5.5l-10,11l-24,6L3.506,102.125z"
					/>
				<path fill="none" stroke="#FF1200" d="M131.506,136.125l73-71.5"/>
				<path fill="none" stroke="#FF1200" d="M204.505,64.625l84.5,73.5"/>
				<path fill="none" stroke="#FF1200" d="M289.005,138.125l4.5-89"/>
				<path fill="none" stroke="#FF1200" d="M261.005,35.125l32.5,14"/>
				<path fill="none" stroke="#FF1200" d="M261.005,35.125l5-28"/>
				<path fill="none" stroke="#FF1200" d="M221.505,31.125l39.5,4"/>
				<path fill="none" stroke="#FF1200" d="M221.505,31.125l-15-30.5"/>
				<path fill="none" stroke="#FF1200" d="M129.506,37.125l56.009-6.849l35.99,0.849"/>
				<path fill="none" stroke="#FF1200" d="M129.506,37.125l9-16"/>
				<path fill="none" stroke="#FF1200" d="M129.506,37.125l-56.5,18l-66,55"/>
				<path fill="none" stroke="#FF1200" d="M7.006,110.125l-6.5,29.5"/>
				<path fill="none" stroke="#FF1200" d="M10.006,170.625l-3-60.5"/>
				<path fill="none" stroke="#FF1200" d="M62.506,152.125l-55.5-42"/>
				<path fill="none" stroke="#FF1200" d="M131.506,136.125l-124.5-26"/>
				<path fill="none" stroke="#FF1200" d="M197.005,115.625l7.5-51"/>
				<path fill="none" stroke="#FF1200" d="M183.005,302.625l6-14"/>
				<path fill="none" stroke="#FF1200" d="M187.505,251.625h-9.5"/>
				<path fill="none" stroke="#FF1200" d="M178.005,251.625l11,37"/>
				<path fill="none" stroke="#FF1200" d="M211.505,207.125l-33.5,44.5"/>
				<path fill="none" stroke="#FF1200" d="M211.505,207.125l19.5-12.5"/>
				<path fill="none" stroke="#FF1200" d="M244.005,147.125l-8,33"/>
				<path fill="none" stroke="#FF1200" d="M289.005,138.125l-45,9"/>
			</g>
		</g>
	</g>
</svg>
