<?xml version="1.0" encoding="utf-8"?>
<!-- Generator: Adobe Illustrator 10.0, SVG Export Plug-In . SVG Version: 3.0.0 Build 76)  -->
<!DOCTYPE svg PUBLIC "-//W3C//DTD SVG 1.0//EN"    "http://www.w3.org/TR/2001/REC-SVG-20010904/DTD/svg10.dtd" [
	<!ENTITY ns_flows "http://ns.adobe.com/Flows/1.0/">
	<!ENTITY ns_svg "http://www.w3.org/2000/svg">
	<!ENTITY ns_xlink "http://www.w3.org/1999/xlink">
]>
<svg  xmlns="&ns_svg;" xmlns:xlink="&ns_xlink;" xmlns:a="http://ns.adobe.com/AdobeSVGViewerExtensions/3.0/"
	 width="325.962" height="262.77" viewBox="0 0 325.962 262.77" overflow="visible" enable-background="new 0 0 325.962 262.77"
	 xml:space="preserve">
	<g id="Layer_1">
		<g>
			<path fill="none" stroke="#0000FF" d="M152.063,261.261l-41.844-29.887l-46.823-69.242l3.487-0.995l25.404,26.401l59.775,33.872
				l52.304,2.989l20.424,15.442l-1.993,21.916l75.715,0.5l-32.378-19.926L249.198,224.4l22.417-6.476l48.816-22.913l4.98-14.447
				l-8.219-12.95l-6.726-19.428l-32.378-36.363L229.772,80.44l-37.858-9.464l-16.439-45.828l-34.867,38.355L112.212,1.239
				L86.31,62.009L44.965,34.612l-0.997,50.81l-43.336-7.97l33.872,172.353l-17.932,11.457"/>
			<path fill="none" stroke="#0000FF" d="M63.396,162.132l-28.395-18.429"/>
			<path fill="none" stroke="#0000FF" d="M35.001,143.704L22.467,188.55"/>
			<path fill="none" stroke="#0000FF" d="M66.883,161.137l24.906,2.49"/>
			<path fill="none" stroke="#0000FF" d="M125.165,156.156l-33.375,7.472"/>
			<path fill="none" stroke="#0000FF" d="M125.165,156.156l-16.937,10.96"/>
			<path fill="none" stroke="#0000FF" d="M125.165,156.156l26.898-22.912"/>
			<path fill="none" stroke="#0000FF" d="M165.013,190.028l-12.95-56.784"/>
			<path fill="none" stroke="#0000FF" d="M165.013,190.028l18.931,14.946"/>
			<path fill="none" stroke="#0000FF" d="M183.944,204.974l20.423,19.426"/>
			<path fill="none" stroke="#0000FF" d="M222.797,198.498l-38.854,6.477"/>
			<path fill="none" stroke="#0000FF" d="M222.797,198.498l26.4,25.902"/>
			<path fill="none" stroke="#0000FF" d="M231.265,198l15.443-20.922"/>
			<path fill="none" stroke="#0000FF" d="M272.112,170.104l-25.403,6.974"/>
			<path fill="none" stroke="#0000FF" d="M272.112,170.104l42.341,11.457"/>
			<path fill="none" stroke="#0000FF" d="M314.453,181.561l5.979,13.45"/>
			<path fill="none" stroke="#0000FF" d="M272.112,170.104l-65.754-30.388"/>
			<path fill="none" stroke="#0000FF" d="M206.358,139.716l-31.381-8.965"/>
			<path fill="none" stroke="#0000FF" d="M174.977,130.751l-22.914,2.492"/>
			<path fill="none" stroke="#0000FF" d="M138.116,87.913l13.947,45.331"/>
			<path fill="none" stroke="#0000FF" d="M132.138,98.373l19.925,34.871"/>
			<path fill="none" stroke="#0000FF" d="M132.138,98.373l-23.412-13.449"/>
			<path fill="none" stroke="#0000FF" d="M108.726,84.923l-36.861,1.992"/>
			<path fill="none" stroke="#0000FF" d="M71.865,86.916l-27.896-1.494"/>
			<path fill="none" stroke="#0000FF" d="M43.968,85.421l19.178-19.179"/>
			<path fill="none" stroke="#0000FF" d="M63.146,66.243l23.164-4.233"/>
			<path fill="none" stroke="#0000FF" d="M86.31,62.009l23.41-4.483"/>
			<path fill="none" stroke="#0000FF" d="M107.709,57.913l32.897,5.591"/>
			<path fill="none" stroke="#0000FF" d="M140.607,63.503h27.895"/>
			<path fill="none" stroke="#0000FF" d="M168.501,63.503l23.412,7.473"/>
			<path fill="none" stroke="#0000FF" d="M138.116,87.913l-34.371-8.967"/>
			<path fill="none" stroke="#0000FF" d="M103.745,78.946H64.89"/>
			<path fill="none" stroke="#0000FF" d="M64.89,78.946l-20.922,6.476"/>
			<path fill="none" stroke="#0000FF" d="M16.573,261.261l54.295-4.979"/>
			<path fill="none" stroke="#0000FF" d="M70.868,256.282l81.195,4.979"/>
		</g>
	</g>
</svg>
